<?xml version="1.0" encoding="UTF-8" standalone="no"?>
<!-- Created with Inkscape (http://www.inkscape.org/) -->

<svg
   width="120"
   height="120"
   viewBox="0 0 120 120"
   version="1.1"
   id="svg1"
   xml:space="preserve"
   inkscape:version="1.4.2 (f4327f4, 2025-05-13)"
   sodipodi:docname="Logo.svg"
   xmlns:inkscape="http://www.inkscape.org/namespaces/inkscape"
   xmlns:sodipodi="http://sodipodi.sourceforge.net/DTD/sodipodi-0.dtd"
   xmlns="http://www.w3.org/2000/svg"
   xmlns:svg="http://www.w3.org/2000/svg"><sodipodi:namedview
     id="namedview1"
     pagecolor="#ffffff"
     bordercolor="#000000"
     borderopacity="0.25"
     inkscape:showpageshadow="2"
     inkscape:pageopacity="0.0"
     inkscape:pagecheckerboard="0"
     inkscape:deskcolor="#d1d1d1"
     inkscape:document-units="px"
     inkscape:zoom="2.3776466"
     inkscape:cx="39.324599"
     inkscape:cy="63.297885"
     inkscape:window-width="1650"
     inkscape:window-height="1009"
     inkscape:window-x="-8"
     inkscape:window-y="-8"
     inkscape:window-maximized="1"
     inkscape:current-layer="layer1" /><defs
     id="defs1" /><g
     inkscape:label="Capa 1"
     inkscape:groupmode="layer"
     id="layer1"><text
       xml:space="preserve"
       style="font-style:normal;font-variant:normal;font-weight:normal;font-stretch:normal;font-family:'Microsoft Sans Serif';-inkscape-font-specification:'Microsoft Sans Serif';text-align:start;writing-mode:lr-tb;direction:ltr;text-anchor:start;fill:none;stroke:#000000;stroke-opacity:1"
       x="49.107807"
       y="33.866173"
       id="text7"><tspan
         sodipodi:role="line"
         id="tspan7"
         x="49.107807"
         y="33.866173" /></text><g
       id="g9"
       style="stroke-width:1.8;stroke-dasharray:none"
       transform="matrix(1.3319415,0,0,1.3666534,-12.184497,-15.257128)"><path
         style="fill:none;stroke:#000000;stroke-width:1.8;stroke-dasharray:none;stroke-opacity:1"
         d="m 94.212195,14.700723 c -2.82799,-0.0088 -42.392816,-0.01753 -73.603581,-0.02629 -1.325067,0.157181 -1.360547,0.747026 -1.422912,1.308718 l -5.815282,76.0365 c -0.05263,3.557848 1.284148,3.662428 2.992925,3.64348 l 75.07424,0.21029 c 3.109187,-0.05776 3.464015,0.461704 3.44376,-1.693998 l 0.76208,-78.206891 c -0.12182,-0.624338 -0.35634,-1.185102 -1.43123,-1.271813 z"
         id="path1"
         sodipodi:nodetypes="cccccccccc" /><path
         style="fill:none;stroke:#000000;stroke-width:1.8;stroke-dasharray:none;stroke-opacity:1"
         d="m 27.063197,14.275093 -3.568773,70.483271 -9.36803,10.111524"
         id="path2"
         sodipodi:nodetypes="ccc" /><path
         style="fill:none;stroke:#000000;stroke-width:1.8;stroke-dasharray:none;stroke-opacity:1"
         d="M 23.30855,84.684015 36.096654,95.42751"
         id="path3"
         sodipodi:nodetypes="cc" /><path
         style="fill:none;stroke:#000000;stroke-width:1.8;stroke-dasharray:none;stroke-opacity:1"
         d="M 36.133829,14.572491 V 95.855019"
         id="path4"
         sodipodi:nodetypes="cc" /><ellipse
         style="fill:none;stroke:#000000;stroke-width:1.8;stroke-dasharray:none;stroke-opacity:1"
         id="path7-5"
         cx="53.905128"
         cy="25.848858"
         rx="4.6388392"
         ry="4.4413037" /><ellipse
         style="fill:none;stroke:#000000;stroke-width:1.8;stroke-dasharray:none;stroke-opacity:1"
         id="path7-5-1"
         cx="81.374275"
         cy="25.948378"
         rx="4.6388392"
         ry="4.4413037" /><path
         style="fill:none;stroke:#000000;stroke-width:1.8;stroke-dasharray:none;stroke-opacity:1"
         d="m 53.826307,29.914293 0.06959,27.814679 c 0.432569,4.190506 10.982953,5.230978 14.563333,5.465183 3.180832,-0.03316 13.227992,-0.857147 13.684651,-6.511225 L 81.988176,29.998514"
         id="path9"
         sodipodi:nodetypes="ccccc" /></g><path
       style="fill:#a05a2c;stroke:#000000;stroke-width:0.378526;stroke-dasharray:none;stroke-opacity:1"
       d="M 6.9842647,111.49522 C 6.9074786,111.29512 14.249713,11.293604 14.660864,6.9396353 l 0.05958,-0.6308759 3.837828,-0.057317 3.837829,-0.057317 0.0047,0.4779008 c 0.01434,1.4639486 -4.446399,91.5055268 -4.578124,92.4110168 -0.153763,1.056977 -0.302462,1.247037 -5.388507,6.887067 -2.8767095,3.19004 -5.2560276,5.80008 -5.2873738,5.80008 -0.031346,0 -0.1044746,-0.12374 -0.1625075,-0.27497 z"
       id="path48" /><path
       style="fill:#d38d5f;stroke:#000000;stroke-width:0.378526;stroke-dasharray:none;stroke-opacity:1"
       d="m 15.291563,114.13607 -6.5788036,-0.0587 4.0413836,-4.4657 c 2.222762,-2.45614 4.577975,-5.05577 5.233808,-5.77697 l 1.192423,-1.31126 6.497149,5.59164 c 3.573433,3.0754 6.635718,5.7237 6.805078,5.88512 0.263797,0.25141 -0.474561,0.28638 -5.152154,0.244 -3.003045,-0.0272 -8.420543,-0.0759 -12.038884,-0.10815 z"
       id="path49" /><path
       style="fill:#deaa87;stroke:#000000;stroke-width:0.378526;stroke-dasharray:none;stroke-opacity:1"
       d="m 27.548249,106.19181 c -4.138981,-3.57169 -6.9671,-6.16069 -7.007689,-6.415189 -0.0776,-0.486554 4.337748,-91.310709 4.505531,-92.6792667 l 0.109571,-0.8937409 h 4.718684 4.718685 V 59.197192 c 0,29.146469 -0.02366,52.991218 -0.05257,52.988338 -0.02892,-0.003 -3.175409,-2.70006 -6.992209,-5.99372 z"
       id="path50" /><path
       style="fill:#deaa87;stroke:#000000;stroke-width:0.378526;stroke-dasharray:none;stroke-opacity:1"
       d="M 66.294547,114.34627 37.326826,114.2922 V 60.24791 6.2036134 h 38.155583 c 26.235281,0 38.197891,0.068457 38.291011,0.2191222 0.14194,0.2296595 -0.65402,94.1399544 -0.87285,102.9816644 l -0.12621,5.09958 -8.75604,-0.0518 c -4.815831,-0.0285 -21.791527,-0.0762 -37.723773,-0.10589 z m 19.223166,-42.5194 c 6.420048,-1.097562 10.747039,-3.515777 12.327883,-6.889651 l 0.57105,-1.218749 -0.06065,-18.190256 -0.06065,-18.190257 1.006969,-0.408065 c 1.478015,-0.598954 3.243215,-2.446753 3.830385,-4.009617 0.63556,-1.691657 0.63401,-3.764728 -0.004,-5.470173 -0.64228,-1.716652 -2.35532,-3.430646 -4.082641,-4.084914 -2.668352,-1.010712 -5.808903,-0.470862 -7.829551,1.345873 -4.522936,4.066509 -2.499008,11.460817 3.488461,12.7449 l 1.033698,0.221687 0.09218,17.28439 c 0.105439,19.770699 0.190788,18.679957 -1.598368,20.426731 -2.152549,2.101561 -5.872687,3.438997 -11.482495,4.1281 C 79.183117,69.955011 73.549246,69.44201 68.763959,68.24336 65.47438,67.419365 63.386888,66.498658 62.076512,65.293803 L 60.984674,64.289886 V 45.837154 27.384423 l 0.841168,-0.250754 c 2.045655,-0.609814 3.609372,-1.986884 4.557919,-4.013886 0.529481,-1.131474 0.626897,-1.596321 0.623963,-2.977446 -0.0039,-1.853667 -0.340769,-2.988627 -1.301299,-4.384709 -2.793641,-4.060418 -9.401629,-4.034297 -12.210507,0.04827 -0.928158,1.349032 -1.27575,2.509426 -1.281157,4.276989 -0.0053,1.742229 0.350917,2.886745 1.36445,4.383575 0.688301,1.016515 2.776442,2.477339 3.821388,2.673372 l 0.676584,0.126928 0.139226,12.442825 c 0.07657,6.843555 0.141392,15.234453 0.14404,18.64644 0.0056,7.173968 0.0098,7.193624 1.920243,8.938362 1.915127,1.749003 5.11374,3.062114 9.72568,3.992635 5.949556,1.200401 10.683739,1.365169 15.511341,0.539849 z"
       id="path51" /><path
       style="fill:#ac9d93;stroke:#000000;stroke-width:0.378526;stroke-dasharray:none;stroke-opacity:1"
       d="m 94.555071,24.63168 c -0.388958,-0.140758 -1.086281,-0.574185 -1.549608,-0.963172 -3.356724,-2.818139 -1.269222,-8.091345 3.203118,-8.091345 4.510859,0 6.530489,5.247216 3.137485,8.151504 -1.320918,1.130657 -3.188988,1.482753 -4.790995,0.903013 z"
       id="path52" /><path
       style="fill:#ac9d93;stroke:#000000;stroke-width:0.378526;stroke-dasharray:none;stroke-opacity:1"
       d="m 57.620002,24.315865 c -3.573009,-1.631979 -3.76819,-6.366694 -0.341901,-8.293843 4.682643,-2.633796 9.576112,3.389076 5.858543,7.210684 -1.395728,1.434788 -3.739345,1.894944 -5.516642,1.083159 z"
       id="path53" /></g></svg>
